<?xml version="1.0" encoding="UTF-8" standalone="no"?><!DOCTYPE svg PUBLIC "-//W3C//DTD SVG 1.1//EN" "http://www.w3.org/Graphics/SVG/1.1/DTD/svg11.dtd"><svg width="100%" height="100%" viewBox="0 0 1250 1250" version="1.1" xmlns="http://www.w3.org/2000/svg" xmlns:xlink="http://www.w3.org/1999/xlink" xml:space="preserve" xmlns:serif="http://www.serif.com/" style="fill-rule:evenodd;clip-rule:evenodd;stroke-linejoin:round;stroke-miterlimit:2;"><g><rect x="0" y="0" width="1250" height="1250" style="fill:#1a1a1a;"/><path d="M598.906,481.771c0,35.715 -29.389,65.104 -65.104,65.104c-35.715,-0 -65.104,-29.389 -65.104,-65.104c-0,-35.715 29.389,-65.104 65.104,-65.104c35.715,-0 65.104,29.389 65.104,65.104Zm110.026,105.547c-4.995,-2.503 -11.07,-1.524 -15.026,2.422l-96.614,122.656l-69.271,-72.188c-5.137,-3.42 -12.035,-2.741 -16.406,1.615l-94.948,113.385l-0,52.084c-0,14.286 11.755,26.041 26.041,26.041l364.584,0c14.286,0 26.041,-11.755 26.041,-26.041l0,-117.188l-124.401,-102.786Z" style="fill:#fff;fill-rule:nonzero;"/></g></svg>